<?xml version="1.0" encoding="utf-8"?>
<!-- Generator: Adobe Illustrator 26.0.1, SVG Export Plug-In . SVG Version: 6.00 Build 0)  -->
<svg version="1.1" id="Layer_1" xmlns="http://www.w3.org/2000/svg" xmlns:xlink="http://www.w3.org/1999/xlink" x="0px" y="0px"
	 viewBox="0 0 1000 1000" style="enable-background:new 0 0 1000 1000;" xml:space="preserve">
<style type="text/css">
	.st0{fill:#ED1C24;}
</style>
<g>
	<path class="st0" d="M298.25,305.46l-4.98,23.2h-39.2l-22.85,107.83h-27.56l22.85-107.83h-39.38l4.98-23.2H298.25z"/>
	<path class="st0" d="M286.25,436.49l27.82-131.03h27.11l-10.67,49.96h51.2l10.67-49.96h27.2l-27.82,131.03h-27.2l12.36-58.49h-51.2
		l-12.36,58.49H286.25z"/>
	<path class="st0" d="M442.97,436.49h-27.2l27.82-131.03h27.2L442.97,436.49z"/>
	<path class="st0" d="M496.84,396.04c-0.41,5.99,0.27,10.46,2.04,13.42c3.32,5.39,10.37,8.09,21.16,8.09
		c6.46,0,11.85-0.71,16.18-2.13c8.24-2.73,13.13-7.79,14.67-15.2c0.95-4.33-0.24-7.67-3.55-10.05c-3.26-2.31-8.77-4.36-16.54-6.13
		l-13.25-3.11c-12.98-3.08-21.69-6.43-26.13-10.05c-7.53-6.04-9.93-15.5-7.2-28.36c2.49-11.73,8.83-21.48,19.02-29.25
		c10.19-7.76,23.56-11.65,40.09-11.65c13.81,0,24.8,3.66,32.98,10.98c8.18,7.32,11.02,17.94,8.54,31.87h-26.31
		c1.25-7.88-0.98-13.48-6.67-16.8c-3.79-2.19-8.86-3.29-15.2-3.29c-7.05,0-12.99,1.42-17.82,4.27s-7.78,6.82-8.84,11.91
		c-1.01,4.68,0.32,8.18,4,10.49c2.31,1.54,7.61,3.35,15.91,5.42l21.42,5.42c9.36,2.37,16.15,5.54,20.36,9.51
		c6.52,6.16,8.54,15.08,6.04,26.76c-2.55,11.97-9.24,21.91-20.09,29.82s-24.62,11.87-41.34,11.87c-17.07,0-29.66-3.9-37.78-11.69
		c-8.12-7.79-10.73-18.5-7.82-32.14H496.84z"/>
	<path class="st0" d="M665.57,436.49h-27.2l27.82-131.03h27.2L665.57,436.49z"/>
	<path class="st0" d="M719.44,396.04c-0.42,5.99,0.27,10.46,2.04,13.42c3.32,5.39,10.37,8.09,21.16,8.09
		c6.46,0,11.85-0.71,16.18-2.13c8.24-2.73,13.13-7.79,14.67-15.2c0.95-4.33-0.24-7.67-3.56-10.05c-3.26-2.31-8.77-4.36-16.54-6.13
		l-13.25-3.11c-12.98-3.08-21.69-6.43-26.13-10.05c-7.53-6.04-9.93-15.5-7.2-28.36c2.49-11.73,8.83-21.48,19.02-29.25
		c10.19-7.76,23.56-11.65,40.09-11.65c13.81,0,24.8,3.66,32.98,10.98c8.18,7.32,11.02,17.94,8.53,31.87h-26.31
		c1.25-7.88-0.98-13.48-6.67-16.8c-3.79-2.19-8.86-3.29-15.2-3.29c-7.05,0-12.99,1.42-17.82,4.27c-4.83,2.84-7.78,6.82-8.84,11.91
		c-1.01,4.68,0.32,8.18,4,10.49c2.31,1.54,7.61,3.35,15.91,5.42l21.42,5.42c9.36,2.37,16.15,5.54,20.36,9.51
		c6.52,6.16,8.53,15.08,6.04,26.76c-2.55,11.97-9.25,21.91-20.09,29.82c-10.85,7.91-24.62,11.87-41.34,11.87
		c-17.07,0-29.66-3.9-37.78-11.69c-8.12-7.79-10.73-18.5-7.82-32.14H719.44z"/>
	<path class="st0" d="M166.87,537.88c2.84,5.57,3.47,12.24,1.87,20c-1.72,8-5.13,14.43-10.22,19.29c-2.79,2.73-6.61,5.22-11.47,7.47
		c6.16,2.43,10.39,6.28,12.67,11.56c2.28,5.28,2.62,11.68,1.02,19.2c-1.66,7.76-5.1,14.73-10.31,20.89
		c-3.38,4.09-7.23,7.53-11.56,10.31c-4.86,3.2-10.27,5.39-16.22,6.58c-5.96,1.19-12.28,1.78-18.98,1.78H44.28L72.1,523.92h63.65
		C151.75,524.16,162.12,528.81,166.87,537.88z M82.59,597.26l-7.38,34.94h32.18c5.75,0,10.37-0.77,13.87-2.31
		c6.46-2.84,10.55-8.3,12.27-16.36c1.42-6.81-0.42-11.5-5.51-14.05c-2.84-1.42-7.11-2.16-12.8-2.22H82.59z M93.35,546.68
		l-6.13,28.89h32.18c5.75,0,10.65-1.08,14.71-3.25c4.06-2.16,6.68-6,7.87-11.51c1.24-6.1-0.27-10.13-4.53-12.09
		c-3.85-1.36-8.95-2.04-15.29-2.04H93.35z"/>
	<path class="st0" d="M203.14,523.92h27.82l-17.16,80.54c-1.9,9.01-2.22,15.59-0.98,19.73c1.78,7.35,8.24,11.02,19.38,11.02
		c11.08,0,19.05-3.67,23.91-11.02c3.02-4.15,5.48-10.73,7.38-19.73l17.16-80.54h27.82l-17.16,80.54
		c-2.96,13.93-7.44,24.77-13.42,32.54c-11.08,14.22-27.97,21.33-50.67,21.33c-22.7,0-36.6-7.11-41.69-21.33
		c-2.67-7.76-2.52-18.61,0.44-32.54L203.14,523.92z"/>
	<path class="st0" d="M334.61,523.92h27.38L339.14,631.4h64.89l-4.98,23.56h-92.27L334.61,523.92z"/>
	<path class="st0" d="M445.82,523.92h27.38L450.35,631.4h64.89l-4.98,23.56h-92.27L445.82,523.92z"/>
	<path class="st0" d="M557.56,614.51c-0.42,5.99,0.27,10.46,2.04,13.42c3.32,5.39,10.37,8.09,21.16,8.09
		c6.46,0,11.85-0.71,16.18-2.13c8.24-2.72,13.13-7.79,14.67-15.2c0.95-4.33-0.24-7.67-3.56-10.04c-3.26-2.31-8.77-4.36-16.54-6.13
		l-13.25-3.11c-12.98-3.08-21.69-6.43-26.13-10.04c-7.53-6.04-9.93-15.5-7.2-28.36c2.49-11.73,8.83-21.48,19.02-29.25
		c10.19-7.76,23.56-11.65,40.09-11.65c13.81,0,24.8,3.66,32.98,10.98c8.18,7.32,11.02,17.94,8.53,31.87h-26.31
		c1.25-7.88-0.98-13.48-6.67-16.8c-3.79-2.19-8.86-3.29-15.2-3.29c-7.05,0-12.99,1.42-17.82,4.27c-4.83,2.84-7.78,6.82-8.84,11.91
		c-1.01,4.68,0.32,8.18,4,10.49c2.31,1.54,7.61,3.35,15.91,5.42l21.42,5.42c9.36,2.37,16.15,5.54,20.36,9.51
		c6.52,6.17,8.53,15.08,6.04,26.76c-2.55,11.97-9.25,21.91-20.09,29.82c-10.85,7.91-24.62,11.87-41.34,11.87
		c-17.07,0-29.66-3.9-37.78-11.69c-8.12-7.79-10.73-18.5-7.82-32.14H557.56z"/>
	<path class="st0" d="M650.45,654.96l27.82-131.03h27.11l-10.67,49.96h51.2l10.67-49.96h27.2l-27.82,131.03h-27.2l12.36-58.49h-51.2
		l-12.36,58.49H650.45z"/>
	<path class="st0" d="M807.18,654.96h-27.2l27.82-131.03H835L807.18,654.96z"/>
	<path class="st0" d="M955.72,523.92l-4.98,23.2h-39.2l-22.85,107.83h-27.56l22.85-107.83H844.6l4.98-23.2H955.72z"/>
</g>
</svg>
